<?xml version="1.0" encoding="UTF-8"?>
<svg id="Layer_1" data-name="Layer 1" xmlns="http://www.w3.org/2000/svg" viewBox="0 0 225.67 214.02">
  <path fill="white" d="M63.15,68.96c2.34.51,1.61-.3,2.24-1.28,4.26-6.64,7.08-17.34,11.01-24.96,3.07-5.95,8.22-12.19,11.18-17.82.92-1.75.53-4.09,1.68-6.32,3.35-6.5,16.36-6.55,19.75,0,3.16,6.11-.62,13.99.27,17.69,1.04,4.29,14.4,6.65,18.17,5.49,2.8-.86,4.79-12.15,13.18-12.89,3.35-.29,11.31,2.45,12.32,5.77,1.12,3.67-1.19,13.76,1.44,16.06l40.29,10.2c7.4,5.52-4.65,16.66-7.92,22.18-3.47,5.87-9.6,17.01-12.09,22.91-.6,1.43-1.65,7.75-1.39,9.22l14.27,24.82c6.48,15.25,14.38,30.08,22.37,44.63,1.41,2.57,6.25,7.42,7.03,10.01,1.92,6.29-12.7,16.13-18.3,11.26l-38.03-71.98c-2.17-.52-5.84,10.09-6.94,12.04-1.23,2.18-5.57,9.96-7,11-3.84,2.8-12.68,4.22-16-.1-1.1-1.43-2.53-11.27-2.57-13.49-.11-6.56-.1-13.4-.04-20,.08-8.59,3.79-21.07,3.11-28.96-.21-2.42-3.37-11.34-6.13-7.89-1.74,4.55-4.1,9.09-6.5,13.31-3.05,5.36-6.81,10.66-9.6,16.4s-8.92,24.78-13.32,27.68c-6.05,3.99-17.69,3.32-18.5-5.6,1.91-19.18,2-38.46,5.98-57.4-2.4-2.72-5.28,10.14-5.6,10.89-3.02,7.08-12.76,27.98-16.98,33.02-3.89,4.63-6.63,5.02-12.85,4.02-9.56-1.53-7.43-12.03-6.52-19.39,1.27-10.27.87-16.5.95-27.05.02-2.75,2.71-6.19-.49-8.48-7.28,16.9-12.71,34.37-16.59,52.39-5.81,7.04-24.1,5.18-21.74-5.68.36-1.67,2.01-2.92,2.54-4.52,11.1-34.08,23.13-62.43,36-95,2.39-6.06,3.58-17.65,12.64-17.15,16.05.88,10.08,23.82,9.67,34.46-.39,10.16-.86,20.33-1,30.48ZM104.15,79.96c1.7,2.01,7.41-10.58,7.53-11.89.22-2.58-2.37-4.43-4.05-6.09-1.94-.79-2.21,4.44-2.36,5.61-.54,3.94-.56,8.37-1.12,12.37ZM159.12,92.95c2.67-3.17,2.85-7.54,4.59-10.92.89-1.73,7.75-9.16,7.44-10.54-2.24-3.63-5.29-1.24-7.42-1.61-3.83-.66-7.24-2.89-11.59-1.92.57,7.73-2.15,22.05,6.98,24.99Z"/>
</svg>